<svg xmlns="http://www.w3.org/2000/svg" width="375.441" height="75.961" viewBox="0 0 375.441 75.961">
  <g id="layer1" transform="translate(0)">
    <rect id="rect4154" width="375.441" height="75.961" transform="translate(0 0)" fill="red"/>
    <path id="text4147" d="M-309.5,561.491a2.673,2.673,0,0,0-1.607.482,4.243,4.243,0,0,0-1.159,1.317l-18.644,30.536h6.468l14.719-24.48,5.793,9.6h-9.025l-2.882,5.262h15.344l5.58,9.62h6.824l-18.69-30.536a4.243,4.243,0,0,0-1.159-1.317A2.476,2.476,0,0,0-309.5,561.491Zm-63.369-.274a2.934,2.934,0,0,0-3.1,2.428l-7.606,30.18h5.777l5.618-22.1,10.287,20.433a3.116,3.116,0,0,0,3.007,2.1,2.819,2.819,0,0,0,1.756-.525,4.521,4.521,0,0,0,1.249-1.58l10.328-20.433,5.622,22.1h5.827l-7.56-30.18a2.97,2.97,0,0,0-3-2.428,3.065,3.065,0,0,0-3,2.008L-358.7,585.972l-11.018-22.746a3.2,3.2,0,0,0-1.33-1.495A3.414,3.414,0,0,0-372.869,561.218Zm91.219.318a2.849,2.849,0,0,0-2.221.922,3.486,3.486,0,0,0-.786,2.413v28.955h5.595v-23.34l20.863,22.55a3.843,3.843,0,0,0,2.681,1.185,2.66,2.66,0,0,0,2.082-.877,3.429,3.429,0,0,0,.831-2.457V561.668H-258.2v23.34l-20.955-22.331a4.475,4.475,0,0,0-1.249-.877A3.075,3.075,0,0,0-281.65,561.536Zm36.017.4v31.895h5.872V561.931Zm11.333,0V567.5h12.761v26.324h5.872V567.5h12.761v-5.571Zm50.376,0a18.218,18.218,0,0,0-6.518,1.14,15.364,15.364,0,0,0-5.179,3.158,14.38,14.38,0,0,0-3.421,4.915,16.542,16.542,0,0,0-1.2,6.4,17.1,17.1,0,0,0,1.2,6.45,16.1,16.1,0,0,0,3.421,5.176,17.047,17.047,0,0,0,5.179,3.424,17.059,17.059,0,0,0,6.518,1.228h8.185a17.308,17.308,0,0,0,6.61-1.228,16.327,16.327,0,0,0,5.179-3.424A15.15,15.15,0,0,0-160.529,584a16.543,16.543,0,0,0,1.249-6.45,16.1,16.1,0,0,0-1.2-6.317,14.3,14.3,0,0,0-3.376-4.957,15.232,15.232,0,0,0-5.224-3.2,18.628,18.628,0,0,0-6.657-1.14Zm44.79,0a18.218,18.218,0,0,0-6.518,1.14,15.364,15.364,0,0,0-5.179,3.158,14.38,14.38,0,0,0-3.421,4.915,16.542,16.542,0,0,0-1.2,6.4,17.1,17.1,0,0,0,1.2,6.45,16.1,16.1,0,0,0,3.421,5.176,17.047,17.047,0,0,0,5.179,3.424,17.059,17.059,0,0,0,6.518,1.228h8.183a17.319,17.319,0,0,0,6.612-1.228,16.327,16.327,0,0,0,5.179-3.424A15.15,15.15,0,0,0-115.739,584a16.543,16.543,0,0,0,1.249-6.45,16.1,16.1,0,0,0-1.2-6.317,14.3,14.3,0,0,0-3.376-4.957,15.232,15.232,0,0,0-5.224-3.2,18.639,18.639,0,0,0-6.659-1.14Zm56.992,0a18.229,18.229,0,0,0-6.52,1.14,15.364,15.364,0,0,0-5.179,3.158,14.38,14.38,0,0,0-3.421,4.915,16.543,16.543,0,0,0-1.2,6.4,17.1,17.1,0,0,0,1.2,6.45,16.1,16.1,0,0,0,3.421,5.176,17.047,17.047,0,0,0,5.179,3.424,17.069,17.069,0,0,0,6.52,1.228h18.216v-5.571H-82.143a11.07,11.07,0,0,1-4.208-.79,10.271,10.271,0,0,1-3.281-2.149,10.112,10.112,0,0,1-2.174-3.335,10.952,10.952,0,0,1-.785-4.169,10.732,10.732,0,0,1,.785-4.167,9.736,9.736,0,0,1,2.174-3.247,9.7,9.7,0,0,1,3.281-2.1,11.069,11.069,0,0,1,4.208-.79h18.216v-5.571Zm22.289,0v5.308h23.118l-22.33,21.367a3.289,3.289,0,0,0-1.2,2.368,2.547,2.547,0,0,0,.97,2.149,4.051,4.051,0,0,0,2.359.7h30.213v-5.308H-50.651l22.33-21.367a3.293,3.293,0,0,0,1.2-2.37,2.387,2.387,0,0,0-1.017-2.1,3.809,3.809,0,0,0-2.311-.745ZM-183.924,567.5h8.185a11.188,11.188,0,0,1,4.254.79,9.611,9.611,0,0,1,3.329,2.1,9.318,9.318,0,0,1,2.219,3.292,10.611,10.611,0,0,1,.786,4.123,10.952,10.952,0,0,1-.786,4.169,9.76,9.76,0,0,1-2.219,3.335,10.154,10.154,0,0,1-3.329,2.149,11.189,11.189,0,0,1-4.254.79h-8.185a11.06,11.06,0,0,1-4.206-.79,10.28,10.28,0,0,1-3.284-2.149,10.107,10.107,0,0,1-2.172-3.335,10.952,10.952,0,0,1-.786-4.169,10.732,10.732,0,0,1,.786-4.167,9.731,9.731,0,0,1,2.172-3.247,9.71,9.71,0,0,1,3.284-2.1A11.058,11.058,0,0,1-183.924,567.5Zm44.79,0h8.183a11.188,11.188,0,0,1,4.254.79,9.62,9.62,0,0,1,3.331,2.1,9.318,9.318,0,0,1,2.219,3.292,10.611,10.611,0,0,1,.786,4.123,10.952,10.952,0,0,1-.786,4.169,9.761,9.761,0,0,1-2.219,3.335,10.164,10.164,0,0,1-3.331,2.149,11.189,11.189,0,0,1-4.254.79h-8.183a11.06,11.06,0,0,1-4.206-.79,10.28,10.28,0,0,1-3.283-2.149,10.107,10.107,0,0,1-2.172-3.335,10.952,10.952,0,0,1-.785-4.169,10.732,10.732,0,0,1,.785-4.167,9.731,9.731,0,0,1,2.172-3.247,9.71,9.71,0,0,1,3.283-2.1A11.059,11.059,0,0,1-139.134,567.5Zm31.876,20.708a3.009,3.009,0,0,0-2.219.877,2.78,2.78,0,0,0-.878,2.107,2.921,2.921,0,0,0,.878,2.149,3.1,3.1,0,0,0,2.219.833,3.262,3.262,0,0,0,2.266-.833,2.849,2.849,0,0,0,.925-2.149,2.715,2.715,0,0,0-.925-2.107A3.169,3.169,0,0,0-107.258,588.21Z" transform="translate(392.871 -539.76)" fill="#fff"/>
  </g>
</svg>
