<svg xmlns="http://www.w3.org/2000/svg" width="130" height="130" viewBox="0 0 73.136 51.366">
  <path fill="#fff" d="M20.921 43.042a3.644 3.644 0 0 1-2.427-.921L.005 25.681 19.521 8.326a3.655 3.655 0 1 1 4.854 5.465l-13.37 11.89 12.343 10.972a3.655 3.655 0 0 1-2.427 6.389Zm32.694-.007 19.521-17.354-18.494-16.44a3.654 3.654 0 0 0-4.854 5.464l12.346 10.976-13.373 11.886a3.656 3.656 0 0 0 4.854 5.468Zm-17.1 5.179 7.31-43.86a3.655 3.655 0 1 0-7.208-1.2l-7.312 43.857a3.655 3.655 0 1 0 7.208 1.2Z" data-name="Path 41"/></svg>