<svg xmlns="http://www.w3.org/2000/svg" width="64.924" height="66.772" viewBox="0 0 64.924 66.772">
  <path id="Path_43" data-name="Path 43" d="M33.738,12.265a14.561,14.561,0,0,0-8.4,2.65,14.858,14.858,0,0,0-1.707-6.3A20.866,20.866,0,0,1,54.6,26.872H64a7.3,7.3,0,0,1,7.3,7.3V57.124a7.3,7.3,0,0,1-7.307,7.307H41.041a7.3,7.3,0,0,1-7.3-7.3v-9.39a20.8,20.8,0,0,1-8.43-1.774c.054-1.419.083-2.909.083-4.486V41.22c0-.7,0-1.5-.013-2.366a14.565,14.565,0,0,0,8.359,2.625v-7.3a7.306,7.306,0,0,1,7.3-7.3h7.3A14.606,14.606,0,0,0,33.738,12.265ZM53.648,33.132A20.916,20.916,0,0,1,40,46.783V57.128a1.044,1.044,0,0,0,1.043,1.043H63.994a1.043,1.043,0,0,0,1.043-1.043V34.175a1.043,1.043,0,0,0-1.043-1.043Zm-6.711,0h-5.9A1.043,1.043,0,0,0,40,34.175v5.9A14.669,14.669,0,0,0,46.938,33.132ZM17.148,2.231a2.087,2.087,0,0,1,.5,2.5,1.377,1.377,0,0,0-.054.376,1.928,1.928,0,0,0,.7,1.39c.3.3.538.522.793.76.209.192.43.392.709.668a11.354,11.354,0,0,1,1.628,1.89,11.212,11.212,0,0,1,1.653,6.506,11.306,11.306,0,0,1-3.376,8.455l.267.309a12.644,12.644,0,0,1,2.274,5.133,51.89,51.89,0,0,1,.835,11.038v.1c0,11.631-1.582,18.229-3.322,22a12.35,12.35,0,0,1-2.612,3.869,6.176,6.176,0,0,1-1.077.826,4.131,4.131,0,0,1-.555.28,3.324,3.324,0,0,1-.78.15,3.324,3.324,0,0,1-.78-.15,3.122,3.122,0,0,1-.555-.28,6.176,6.176,0,0,1-1.077-.826A12.4,12.4,0,0,1,9.7,63.357c-1.74-3.773-3.322-10.371-3.322-22v-.1a51.871,51.871,0,0,1,.835-11.038A12.644,12.644,0,0,1,9.486,25.08c.083-.1.175-.209.267-.309a11.306,11.306,0,0,1-3.376-8.455,14.98,14.98,0,0,1,.864-4.482A19.592,19.592,0,0,1,9.252,7.527a16.8,16.8,0,0,1,3.372-3.91,22.9,22.9,0,0,1,1.8-1.431l.184-.125A2.087,2.087,0,0,1,17.148,2.231Z" transform="translate(-6.377 -1.709)" fill="#fff"/>
</svg>
