<svg xmlns="http://www.w3.org/2000/svg" width="55.722" height="53.509" viewBox="0 0 55.722 53.509">
  <path id="Path_42" data-name="Path 42" d="M55.694,41.459,53.357,54.864a2.871,2.871,0,0,1-2.829,2.4H16.461l-.676,3.813H48.254a2.89,2.89,0,1,1,0,5.78H12.341a3.043,3.043,0,0,1-2.89-3.444l1.537-8.363L8.652,31.558,2.01,29.468A2.978,2.978,0,0,1,.1,25.839a3.009,3.009,0,0,1,3.628-1.906l8.486,2.706a3.025,3.025,0,0,1,1.968,2.46l.492,4.674,38.495,4.3A3,3,0,0,1,55.694,41.459ZM21.141,72.924a4.412,4.412,0,1,1-4.412-4.412A4.412,4.412,0,0,1,21.141,72.924Zm26.34,0a4.412,4.412,0,1,1-4.412-4.412A4.412,4.412,0,0,1,47.481,72.924Z" transform="translate(0 -23.827)" fill="#fff"/>
</svg>
