<svg xmlns="http://www.w3.org/2000/svg" xmlns:xlink="http://www.w3.org/1999/xlink" width="990.043" height="930.841" viewBox="0 0 990.043 930.841">
  <defs>
    <linearGradient id="linear-gradient" x1="0.5" x2="0.5" y2="1" gradientUnits="objectBoundingBox">
      <stop offset="0" stop-color="#e02424"/>
      <stop offset="1" stop-color="#c70000"/>
    </linearGradient>
  </defs>
  <g id="Group_52" data-name="Group 52" transform="translate(-840.708 -96.686)">
    <path id="Path_11" data-name="Path 11" d="M135,41.65a5.675,5.675,0,0,1-1.575,6.15L122.6,57.651a47.651,47.651,0,0,1,0,12.7l10.825,9.85A5.675,5.675,0,0,1,135,86.351a63.463,63.463,0,0,1-3.925,8.575L129.9,96.951a65.868,65.868,0,0,1-5.525,7.825,5.719,5.719,0,0,1-6.125,1.7l-13.925-4.45a54.7,54.7,0,0,1-11,6.375L90.2,122.676a5.994,5.994,0,0,1-4.55,4.45A65.328,65.328,0,0,1,74.8,128a63.941,63.941,0,0,1-10.4-.875,5.994,5.994,0,0,1-4.55-4.45L56.727,108.4a49.136,49.136,0,0,1-11-6.375l-13.915,4.45a5.708,5.708,0,0,1-6.128-1.7,65.6,65.6,0,0,1-5.528-7.825l-1.17-2.025a62.353,62.353,0,0,1-3.945-8.575,5.68,5.68,0,0,1,1.588-6.15l10.815-9.85a48.5,48.5,0,0,1,0-12.7L16.629,47.8a5.669,5.669,0,0,1-1.588-6.15,62.652,62.652,0,0,1,3.945-8.575l1.168-2.025a64.764,64.764,0,0,1,5.53-7.813,5.678,5.678,0,0,1,6.128-1.7l13.915,4.44a48.079,48.079,0,0,1,11-6.368L59.852,5.333A5.672,5.672,0,0,1,64.4.878a64.764,64.764,0,0,1,21.25,0A5.672,5.672,0,0,1,90.2,5.333l3.125,14.275a53.385,53.385,0,0,1,11,6.368l13.925-4.44a5.689,5.689,0,0,1,6.125,1.7A64.727,64.727,0,0,1,129.9,31.05l1.175,2.025A63.466,63.466,0,0,1,135,41.65ZM75.027,84a20.113,20.113,0,1,0-20-20.225A20.044,20.044,0,0,0,75.027,84Z" transform="translate(1080.713 512.437)" fill="#c70000" opacity="0.197"/>
    <path id="Polygon_7" data-name="Polygon 7" d="M257.127,60.2c15.386-26.719,53.941-26.719,69.327,0l222.6,386.563c15.356,26.667-3.892,59.961-34.664,59.961H69.192c-30.772,0-50.019-33.294-34.664-59.961Z" transform="matrix(-0.978, -0.208, 0.208, -0.978, 1568.468, 870.596)" opacity="0.472"/>
    <path id="Path_33" data-name="Path 33" d="M241.142,15.91a31.757,31.757,0,0,1,55.04,0L533.041,427.234a31.757,31.757,0,0,1-27.52,47.6H31.8a31.757,31.757,0,0,1-27.52-47.6Z" transform="matrix(-0.978, -0.208, 0.208, -0.978, 1522.427, 842.256)" fill="url(#linear-gradient)"/>
    <g id="paint-svgrepo-com" transform="translate(1196.595 389.634) rotate(-8)">
      <path id="Path_4" data-name="Path 4" d="M105.232,0a105.275,105.275,0,0,0,.043,210.55h.112a8.088,8.088,0,0,0,7.813-10.023,62,62,0,0,1-1.806-15.008,61.375,61.375,0,0,1,9.324-32.438l-16.257-16.257A30,30,0,0,1,84.182,128c-3.117-3.117-7.6-9.427-10.551-28.16-1.484-9.422-1.879-17.665-1.895-18.011l-.44-9.47,9.47.44c.347.016,8.589.411,18.011,1.895,18.733,2.949,25.044,7.435,28.16,10.551a30.055,30.055,0,0,1,8.826,20.279l20.592,20.592a61.877,61.877,0,0,1,41.521,2.71,8.12,8.12,0,0,0,11.235-6.13,105.779,105.779,0,0,0,1.437-17.62C210.439,47.2,163.105-.023,105.232,0Zm-63.1,143.621a12.147,12.147,0,1,1,6.743-15.8A12.061,12.061,0,0,1,42.135,143.621Zm8.492-64.833A12.146,12.146,0,1,1,28.789,68.147h-.005A12.149,12.149,0,0,1,50.627,78.788Zm29.148,82.622a12.147,12.147,0,1,1-8.589,3.558A12.222,12.222,0,0,1,79.775,161.411Zm8.33-114.4a12.145,12.145,0,1,1,8.206-15.089A12.126,12.126,0,0,1,88.1,47.006Zm65.319,2.365a12.147,12.147,0,1,1-4.011-16.7A12.144,12.144,0,0,1,153.424,49.371Zm32,50.63a12.147,12.147,0,1,1,3.558-8.589A12.232,12.232,0,0,1,185.422,100Z" transform="translate(0 0)" fill="#fff"/>
      <path id="Path_5" data-name="Path 5" d="M19.088,0A30.313,30.313,0,0,1,11.8,11.8,30.312,30.312,0,0,1,0,19.087L58.665,77.752a13.362,13.362,0,0,0,18.9,0l.191-.191a13.361,13.361,0,0,0,0-18.9Z" transform="translate(115.141 116.199)" fill="#fff"/>
      <path id="Path_6" data-name="Path 6" d="M40.465,9.926C32.028,1.489,0,0,0,0S1.489,32.028,9.926,40.465A21.595,21.595,0,0,0,40.465,9.926Z" transform="translate(80.365 81.423)" fill="#fff"/>
    </g>
    <path id="Path_9" data-name="Path 9" d="M48.42,102.6A8.435,8.435,0,0,1,42.8,100.47L0,62.417,45.18,22.249A8.459,8.459,0,1,1,56.416,34.9L25.46,62.417l28.578,25.4A8.46,8.46,0,0,1,48.42,102.6Zm75.675-.017,45.185-40.168L126.472,24.364a8.459,8.459,0,0,0-11.235,12.648l28.578,25.405L112.86,89.929a8.462,8.462,0,1,0,11.235,12.656ZM84.519,114.573l16.92-101.52A8.46,8.46,0,1,0,84.756,10.27L67.836,111.79a8.46,8.46,0,1,0,16.683,2.783Z" transform="translate(1423.786 251.789)" fill="#c70000" opacity="0.197"/>
    <path id="Path_10" data-name="Path 10" d="M117.822,61.128l-4.943,28.36a6.073,6.073,0,0,1-5.984,5.073H34.824l-1.431,8.066h68.688a6.114,6.114,0,1,1,0,12.228H26.108a6.438,6.438,0,0,1-6.114-7.285l3.252-17.692L18.3,40.183,4.253,35.76A6.3,6.3,0,0,1,.22,28.084,6.366,6.366,0,0,1,7.9,24.052l17.953,5.724a6.4,6.4,0,0,1,4.163,5.2l1.041,9.887,81.437,9.106C116.23,54.783,118.262,57.747,117.822,61.128Zm-73.1,66.566a9.334,9.334,0,1,1-9.334-9.334A9.334,9.334,0,0,1,44.724,127.693Zm55.724,0a9.334,9.334,0,1,1-9.334-9.334A9.334,9.334,0,0,1,100.447,127.693Z" transform="translate(1397.103 574.308)" fill="#c70000" opacity="0.197"/>
    <path id="Path_12" data-name="Path 12" d="M121.394,101.772a137.313,137.313,0,0,0,1.164-16.629,137.313,137.313,0,0,0-1.164-16.629h28.1a68.526,68.526,0,0,1,2.162,16.629,68.526,68.526,0,0,1-2.162,16.629M106.678,148a130.112,130.112,0,0,0,11.474-29.6h24.527a66.764,66.764,0,0,1-36,29.6M104.6,101.772H65.688a104.595,104.595,0,0,1,0-33.257H104.6a121.265,121.265,0,0,1,1.33,16.629,122.328,122.328,0,0,1-1.33,16.629M85.144,151.326A112.767,112.767,0,0,1,69.263,118.4h31.761a112.767,112.767,0,0,1-15.88,32.925M51.886,51.886H27.608a65.875,65.875,0,0,1,35.918-29.6,143.293,143.293,0,0,0-11.64,29.6M27.608,118.4H51.886A143.293,143.293,0,0,0,63.526,148a66.581,66.581,0,0,1-35.918-29.6M20.79,101.772a68.526,68.526,0,0,1-2.162-16.629A68.526,68.526,0,0,1,20.79,68.515h28.1a137.314,137.314,0,0,0-1.164,16.629,137.314,137.314,0,0,0,1.164,16.629M85.144,18.878a113.232,113.232,0,0,1,15.88,33.008H69.263a113.232,113.232,0,0,1,15.88-33.008m57.535,33.008H118.152a130.119,130.119,0,0,0-11.474-29.6,66.405,66.405,0,0,1,36,29.6M85.144,2a83.144,83.144,0,1,0,83.144,83.144A83.227,83.227,0,0,0,85.144,2Z" transform="translate(1007.313 230)" fill="#c70000" opacity="0.197"/>
  </g>
</svg>
