<svg id="paint-svgrepo-com" xmlns="http://www.w3.org/2000/svg" width="65.5" height="65.5" viewBox="0 0 65.5 65.5">
  <path id="Path_4" data-name="Path 4" d="M32.737,0a32.75,32.75,0,0,0,.013,65.5h.035a2.516,2.516,0,0,0,2.431-3.118,19.288,19.288,0,0,1-.562-4.669,19.093,19.093,0,0,1,2.9-10.091L32.5,42.565a9.334,9.334,0,0,1-6.309-2.746c-.97-.97-2.365-2.933-3.282-8.76-.462-2.931-.584-5.5-.59-5.6l-.137-2.946,2.946.137c.108,0,2.672.128,5.6.589,5.828.918,7.791,2.313,8.76,3.282a9.35,9.35,0,0,1,2.746,6.309l6.406,6.406a19.249,19.249,0,0,1,12.917.843,2.526,2.526,0,0,0,3.5-1.907A32.773,32.773,0,0,0,32.737,0ZM13.108,44.679a3.779,3.779,0,1,1,2.1-4.914A3.753,3.753,0,0,1,13.108,44.679ZM15.75,24.51A3.779,3.779,0,1,1,8.956,21.2h0a3.779,3.779,0,0,1,6.8,3.31Zm9.068,25.7a3.779,3.779,0,1,1-2.672,1.107A3.8,3.8,0,0,1,24.817,50.213Zm2.591-35.59a3.778,3.778,0,1,1,2.553-4.694A3.772,3.772,0,0,1,27.409,14.623Zm20.32.736a3.779,3.779,0,1,1-1.248-5.2A3.778,3.778,0,0,1,47.729,15.359Zm9.954,15.75a3.779,3.779,0,1,1,1.107-2.672A3.805,3.805,0,0,1,57.683,31.109Z" transform="translate(0 0)" fill="#fff"/>
  <path id="Path_5" data-name="Path 5" d="M219.213,215.235a9.388,9.388,0,0,1-5.938,5.938l18.25,18.25a4.157,4.157,0,0,0,5.879,0l.059-.059a4.156,4.156,0,0,0,0-5.878Z" transform="translate(-177.456 -179.087)" fill="#fff"/>
  <path id="Path_6" data-name="Path 6" d="M161.448,153.907c-2.625-2.625-12.588-3.088-12.588-3.088s.463,9.964,3.088,12.588a6.718,6.718,0,0,0,9.5-9.5Z" transform="translate(-123.859 -125.489)" fill="#fff"/>
</svg>
