<svg xmlns="http://www.w3.org/2000/svg" width="59.443" height="52.018" viewBox="0 0 59.443 52.018">
  <path id="thumbs-up" d="M36.386,32.069a5.578,5.578,0,0,1,4.377,6.56L40.5,39.952a27.679,27.679,0,0,1-3.344,8.731H53.871A5.572,5.572,0,0,1,56.436,59.2,5.571,5.571,0,0,1,54,69.012,5.582,5.582,0,0,1,50.957,77.2a5.831,5.831,0,0,1,.128,1.207,5.574,5.574,0,0,1-5.573,5.573H34.192A11.169,11.169,0,0,1,28,82.108l-4.47-2.984a11.146,11.146,0,0,1-4.957-9.276V56.938a11.185,11.185,0,0,1,4.18-8.708l.859-.685a16.679,16.679,0,0,0,5.944-9.776l.267-1.324A5.578,5.578,0,0,1,36.386,32.069ZM3.715,50.541h7.43a3.711,3.711,0,0,1,3.715,3.715V80.262a3.711,3.711,0,0,1-3.715,3.715H3.715A3.711,3.711,0,0,1,0,80.262V54.256A3.711,3.711,0,0,1,3.715,50.541Z" transform="translate(0 -31.96)" fill="#fff"/>
</svg>
